# xmcd
#
# Track frame offsets:
#	150
#	18366
#	31931
#	46599
#	62076
#	71836
#	88728
#	102992
#	121134
#	144111
#
# Disc length: 2093 seconds
# Revision: 0
# Processed by: cddbd v1.5.2PL0 Copyright (c) Steve Scherf et al.
# Submitted via: dBpowerAMP V12.0
#
DISCID=7b082b0a
DTITLE=The Blues Band - Official Blues Band Bootleg Album
DYEAR=1980
DGENRE=Blues
TTITLE0=Talk To Me Baby
TTITLE1=Flatfoot Sam
TTITLE2=Two Bones And A Pick
TTITLE3=Someday Baby
TTITLE4=Boom Boom (Out Go The Lights)
TTITLE5=Come On In
TTITLE6=Death Letter
TTITLE7=Going Home
TTITLE8=I Don't Know
TTITLE9=Diddy Wah Diddy
EXTD=
EXTT0=
EXTT1=
EXTT2=
EXTT3=
EXTT4=
EXTT5=
EXTT6=
EXTT7=
EXTT8=
EXTT9=
PLAYORDER=
